<svg width="113" height="19" viewBox="0 0 113 19" fill="none" xmlns="http://www.w3.org/2000/svg">
<path d="M0 0.615291H3.73389V17.6947H0V0.551799V0.615291ZM7.93843 0.615291H15.6886C17.8223 0.615291 19.4539 1.18672 20.6148 2.32958C21.1032 2.85489 21.4825 3.47389 21.7304 4.15001C21.9783 4.82613 22.0897 5.54567 22.0582 6.26611V6.29785C22.0582 7.69468 21.7444 8.83755 21.0541 9.69469C20.377 10.5612 19.4754 11.2206 18.4498 11.5995L22.5602 17.7265H18.2302L14.5904 12.2344H11.7037V17.7265H8.00119V0.551799L7.93843 0.615291ZM15.469 8.90104C16.3789 8.90104 17.0692 8.71056 17.5712 8.26612C17.8154 8.04333 18.0069 7.76793 18.1319 7.46024C18.2568 7.15255 18.3118 6.82041 18.2929 6.48833V6.45658C18.2929 5.63118 18.0419 5.02801 17.5399 4.61531C17.0064 4.20261 16.2848 3.98038 15.3748 3.98038H11.6723V8.90104H15.469ZM33.6677 18.0122C31.2643 18.0397 28.9452 17.1171 27.204 15.4408C26.3854 14.6338 25.7401 13.6648 25.3082 12.5942C24.8763 11.5237 24.6672 10.3745 24.6939 9.2185V9.12326C24.6725 7.3707 25.1769 5.65277 26.1404 4.19618C27.1039 2.73959 28.4813 1.6128 30.0907 0.964499C31.1889 0.520052 32.3813 0.266083 33.6991 0.266083C36.0961 0.25535 38.403 1.18899 40.1314 2.86927C40.95 3.67619 41.5954 4.6452 42.0273 5.71577C42.4592 6.78635 42.6683 7.93551 42.6416 9.09152V9.12326C42.663 10.8758 42.1586 12.5938 41.1951 14.0503C40.2316 15.5069 38.8542 16.6337 37.2447 17.282C36.1116 17.7615 34.896 18.0097 33.6677 18.0122ZM33.6677 14.5201C34.3524 14.5296 35.0317 14.3964 35.6633 14.1288C36.2949 13.8611 36.8652 13.4648 37.3389 12.9645C38.2675 11.9456 38.7731 10.6043 38.7509 9.2185V9.12326C38.7809 7.71125 38.2628 6.34357 37.3075 5.31372C36.8343 4.81068 36.2647 4.41049 35.6335 4.13759C35.0023 3.86468 34.3228 3.72477 33.6364 3.72641C32.955 3.72723 32.2809 3.86839 31.6551 4.14128C31.0294 4.41417 30.4651 4.81308 29.9966 5.31372C29.049 6.33565 28.5314 7.69042 28.5533 9.09152V9.12326C28.5517 10.5301 29.066 11.8875 29.9966 12.9328C30.4673 13.409 31.0007 13.7899 31.6282 14.0757C32.2558 14.3931 32.9461 14.5201 33.6991 14.5201H33.6677ZM45.9676 0.615291H49.4191L57.3262 11.155V0.615291H60.9659V17.6947H57.8282L49.6074 6.80579V17.6947H45.9362V0.551799L45.9676 0.615291Z" fill="#C6AAC6"/>
<path d="M64.8259 0.615478H71.1641C72.1054 0.615478 72.9839 0.742463 73.7684 0.996433C74.5528 1.2504 75.2117 1.59961 75.7765 2.04406C76.3299 2.54738 76.7702 3.16483 77.0679 3.85481C77.3656 4.5448 77.5137 5.29131 77.5023 6.04407V6.07582C77.5023 7.0282 77.314 7.82186 76.9689 8.52027C76.6237 9.21869 76.1217 9.79012 75.5255 10.2663C74.896 10.746 74.1828 11.1014 73.4232 11.3139C72.6074 11.5679 71.7602 11.6631 70.8503 11.6631H66.7713V17.6949H64.8259V0.615478ZM70.9444 9.94885C71.6347 9.94885 72.2623 9.85361 72.8271 9.66313C73.3619 9.50605 73.8624 9.24749 74.3018 8.90123C74.7025 8.57278 75.0239 8.15613 75.2414 7.683C75.4589 7.20987 75.5668 6.69276 75.5569 6.17106V6.10756C75.5569 4.90121 75.1804 3.94883 74.3332 3.34565C73.486 2.74247 72.3878 2.39326 71.0386 2.39326H66.7399V9.94885H70.9444ZM80.9851 0.615478H86.8527C88.1705 0.615478 89.3629 0.805955 90.4924 1.2504C91.5906 1.69485 92.532 2.29803 93.3164 3.05993C94.1314 3.82948 94.7764 4.76471 95.209 5.80423C95.6416 6.84376 95.8521 7.96409 95.8266 9.0917V9.1552C95.8432 10.3082 95.6298 11.4527 95.199 12.5203C94.7685 13.5543 94.1269 14.4847 93.3164 15.2505C92.4987 16.0316 91.5399 16.6459 90.4924 17.06C89.3629 17.5044 88.1705 17.6949 86.8527 17.6949H80.9851V0.615478ZM86.8527 15.9171C87.9195 15.9171 88.8608 15.7584 89.7394 15.4092C90.5529 15.1043 91.2942 14.6304 91.9157 14.018C92.5372 13.4056 93.025 12.6683 93.3478 11.8536C93.6819 11.0164 93.8524 10.1216 93.8498 9.21869V9.12345C93.8498 8.17107 93.6929 7.31392 93.3478 6.48852C93.0239 5.66706 92.5364 4.92183 91.9157 4.29921C91.2949 3.67659 90.5541 3.18991 89.7394 2.86946C88.8176 2.51673 87.838 2.34436 86.8527 2.36152H82.8678V15.8854H86.8527V15.9171ZM99.8742 0.615478H112.017V2.39326H101.788V8.48853H110.95V10.2346H101.757V17.6949H99.8742V0.551986V0.615478Z" fill="#C6AAC6"/>
</svg>
