<svg width="64" height="14" viewBox="0 0 64 14" fill="none" xmlns="http://www.w3.org/2000/svg">
<path d="M1.26414 13.5202H2.63511V5.5193H5.5373V4.34323H2.61731V3.59482C2.61731 2.29401 3.15145 1.63469 4.21974 1.63469C4.70047 1.63469 5.05657 1.72379 5.55511 1.86634V0.672447C5.10999 0.512073 4.68267 0.440796 4.0417 0.440796C3.20487 0.440796 2.54609 0.672447 2.06536 1.15357C1.53122 1.68815 1.26414 2.4722 1.26414 3.52354V4.32541H0V5.5193H1.26414V13.5202Z" fill="#C6AAC6"/>
<path d="M10.6459 13.734C13.4234 13.734 15.471 11.5422 15.471 8.92279V8.88715C15.471 6.28553 13.459 4.11158 10.6815 4.11158C7.88614 4.11158 5.87419 6.30335 5.87419 8.92279V8.95843C5.87419 11.5601 7.88614 13.734 10.6459 13.734ZM10.6815 12.5045C8.74077 12.5045 7.28077 10.9007 7.28077 8.92279V8.88715C7.28077 6.94485 8.65174 5.32329 10.6459 5.32329C12.5866 5.32329 14.0644 6.94485 14.0644 8.92279V8.95843C14.0644 10.8829 12.6756 12.5045 10.6815 12.5045Z" fill="#C6AAC6"/>
<path d="M17.2868 13.5202H18.6578V9.8494C18.6578 7.06958 20.2958 5.62622 22.3078 5.62622H22.4146V4.14721C20.6697 4.09376 19.3344 5.18074 18.6578 6.7132V4.30759H17.2868V13.5202Z" fill="#C6AAC6"/>
<path d="M31.3718 13.6984C32.4935 13.6984 33.4015 13.3598 34.1137 12.6649C34.8259 11.9521 35.2532 10.8651 35.2532 9.3861V1.04665H33.8288V9.40392C33.8288 11.3819 32.7962 12.3976 31.3896 12.3976C30.0898 12.3976 29.3064 11.7739 28.5408 10.6156L27.5259 11.4888C28.3094 12.7718 29.5023 13.6984 31.3718 13.6984Z" fill="#C6AAC6"/>
<path d="M40.4208 13.7162C42.0588 13.7162 43.1093 12.9678 43.7503 12.1303V13.5202H45.0679V7.88927C45.0679 6.73102 44.7474 5.82223 44.1242 5.19855C43.4476 4.52142 42.4506 4.18285 41.1508 4.18285C39.7976 4.18285 38.8184 4.46796 37.8035 4.94908L38.213 6.0717C39.0676 5.66186 39.9223 5.39457 41.0084 5.39457C42.7354 5.39457 43.7503 6.24989 43.7503 7.90709V8.22784C42.9135 7.99619 42.1123 7.83581 40.9193 7.83581C38.5869 7.83581 36.9845 8.88715 36.9845 10.8116V10.8473C36.9845 12.7539 38.7115 13.7162 40.4208 13.7162ZM40.6879 12.6292C39.4593 12.6292 38.3732 11.9521 38.3732 10.7938V10.7582C38.3732 9.59993 39.3347 8.85152 41.0618 8.85152C42.2013 8.85152 43.0737 9.04753 43.7681 9.24354V10.1345C43.7681 11.5957 42.3971 12.6292 40.6879 12.6292Z" fill="#C6AAC6"/>
<path d="M50.0545 13.5915H51.2652L55.2713 4.30759H53.7935L50.6776 11.9521L47.5796 4.30759H46.0662L50.0545 13.5915Z" fill="#C6AAC6"/>
<path d="M59.0463 13.7162C60.6843 13.7162 61.7348 12.9678 62.3758 12.1303V13.5202H63.6934V7.88927C63.6934 6.73102 63.3729 5.82223 62.7497 5.19855C62.0731 4.52142 61.076 4.18285 59.7763 4.18285C58.4231 4.18285 57.4439 4.46796 56.429 4.94908L56.8385 6.0717C57.6931 5.66186 58.5478 5.39457 59.6339 5.39457C61.3609 5.39457 62.3758 6.24989 62.3758 7.90709V8.22784C61.539 7.99619 60.7378 7.83581 59.5448 7.83581C57.2124 7.83581 55.61 8.88715 55.61 10.8116V10.8473C55.61 12.7539 57.337 13.7162 59.0463 13.7162ZM59.3134 12.6292C58.0848 12.6292 56.9987 11.9521 56.9987 10.7938V10.7582C56.9987 9.59993 57.9602 8.85152 59.6873 8.85152C60.8268 8.85152 61.6992 9.04753 62.3936 9.24354V10.1345C62.3936 11.5957 61.0226 12.6292 59.3134 12.6292Z" fill="#C6AAC6"/>
</svg>
