<svg width="93" height="14" viewBox="0 0 93 14" fill="none" xmlns="http://www.w3.org/2000/svg">
<path d="M1.93387 13.5313H3.30834V5.51653H6.21794V4.33841H3.29049V3.5887C3.29049 2.28563 3.826 1.62517 4.89702 1.62517C5.37898 1.62517 5.73598 1.71442 6.23579 1.85722V0.661253C5.78953 0.5006 5.36113 0.429199 4.71852 0.429199C3.87955 0.429199 3.21909 0.661253 2.73714 1.14321C2.20163 1.67872 1.93387 2.46413 1.93387 3.5173V4.32056H0.666504V5.51653H1.93387V13.5313Z" fill="#C6AAC6"/>
<path d="M11.3714 13.7455C14.1561 13.7455 16.2089 11.5499 16.2089 8.92593V8.89023C16.2089 6.28409 14.1918 4.10636 11.4071 4.10636C8.60466 4.10636 6.58758 6.30194 6.58758 8.92593V8.96163C6.58758 11.5678 8.60466 13.7455 11.3714 13.7455ZM11.4071 12.5138C9.46147 12.5138 7.99775 10.9073 7.99775 8.92593V8.89023C7.99775 6.94455 9.37222 5.32018 11.3714 5.32018C13.3171 5.32018 14.7987 6.94455 14.7987 8.92593V8.96163C14.7987 10.8895 13.4064 12.5138 11.4071 12.5138Z" fill="#C6AAC6"/>
<path d="M18.0612 13.5313H19.4357V9.85414C19.4357 7.0695 21.0779 5.62363 23.095 5.62363H23.2021V4.14206C21.4527 4.08851 20.114 5.17737 19.4357 6.7125V4.30271H18.0612V13.5313Z" fill="#C6AAC6"/>
<path d="M29.6041 13.5313H30.9785V3.28524L39.0469 13.5313H40.1714V1.03611H38.797V11.0501L30.925 1.03611H29.6041V13.5313Z" fill="#C6AAC6"/>
<path d="M47.0496 13.7455C49.8342 13.7455 51.887 11.5499 51.887 8.92593V8.89023C51.887 6.28409 49.8699 4.10636 47.0853 4.10636C44.2828 4.10636 42.2657 6.30194 42.2657 8.92593V8.96163C42.2657 11.5678 44.2828 13.7455 47.0496 13.7455ZM47.0853 12.5138C45.1396 12.5138 43.6759 10.9073 43.6759 8.92593V8.89023C43.6759 6.94455 45.0504 5.32018 47.0496 5.32018C48.9953 5.32018 50.4768 6.94455 50.4768 8.92593V8.96163C50.4768 10.8895 49.0845 12.5138 47.0853 12.5138Z" fill="#C6AAC6"/>
<path d="M57.6128 13.7277C59.3265 13.7277 60.3796 12.7816 61.1472 11.6749V13.5313H62.5217V0.5006H61.1472V6.06989C60.4332 5.01672 59.3265 4.10636 57.6128 4.10636C55.3994 4.10636 53.2038 5.90923 53.2038 8.90808V8.94378C53.2038 11.9783 55.3994 13.7277 57.6128 13.7277ZM57.8628 12.496C56.0956 12.496 54.614 11.1215 54.614 8.92593V8.89023C54.614 6.65895 56.0777 5.33803 57.8628 5.33803C59.5764 5.33803 61.2007 6.76605 61.2007 8.89023V8.92593C61.2007 11.0501 59.5764 12.496 57.8628 12.496Z" fill="#C6AAC6"/>
<path d="M68.9897 13.7455C70.7569 13.7455 71.8636 13.0672 72.7918 12.014L71.935 11.2465C71.1674 12.0319 70.3106 12.5495 69.0254 12.5495C67.3832 12.5495 65.973 11.425 65.7766 9.42574H73.0953C73.1131 9.26509 73.1131 9.17583 73.1131 8.97948C73.1131 6.28409 71.5423 4.10636 68.8112 4.10636C66.2407 4.10636 64.3843 6.24839 64.3843 8.90808V8.94378C64.3843 11.7998 66.4728 13.7455 68.9897 13.7455ZM65.7766 8.40827C65.973 6.62324 67.1511 5.26662 68.7755 5.26662C70.6319 5.26662 71.578 6.7482 71.7208 8.40827H65.7766Z" fill="#C6AAC6"/>
<path d="M77.7556 13.7098C78.8802 13.7098 79.7906 13.3706 80.5046 12.6745C81.2186 11.9605 81.647 10.8716 81.647 9.39004V1.03611H80.219V9.40789C80.219 11.3893 79.1837 12.4067 77.7735 12.4067C76.4704 12.4067 75.685 11.782 74.9174 10.6217L73.9 11.4964C74.6854 12.7816 75.8814 13.7098 77.7556 13.7098Z" fill="#C6AAC6"/>
<path d="M88.6268 13.7098C91.108 13.7098 92.893 12.3175 92.893 10.1755V10.1397C92.893 8.22977 91.6078 7.23015 88.8232 6.60539C86.0564 6.03419 85.4316 5.35588 85.4316 4.17776V4.14206C85.4316 2.99964 86.4491 2.12497 88.0913 2.12497C89.3765 2.12497 90.5368 2.53553 91.6971 3.4816L92.5182 2.39273C91.233 1.37526 89.9656 0.857606 88.127 0.857606C85.7529 0.857606 84.0214 2.32133 84.0214 4.26701V4.30271C84.0214 6.35549 85.3424 7.2837 88.2163 7.90846C90.8403 8.47967 91.465 9.12228 91.465 10.2826V10.3183C91.465 11.5499 90.3761 12.4424 88.6804 12.4424C86.9489 12.4424 85.6994 11.8712 84.3963 10.6753L83.5216 11.7106C85.0211 13.0672 86.6276 13.7098 88.6268 13.7098Z" fill="#C6AAC6"/>
</svg>
