<svg width="87" height="17" viewBox="0 0 87 17" fill="none" xmlns="http://www.w3.org/2000/svg">
<path d="M1.60038 13.1837H2.97486V5.16889H5.88447V3.99077H2.95701V3.24106C2.95701 1.93798 3.49252 1.27752 4.56354 1.27752C5.0455 1.27752 5.40251 1.36677 5.90232 1.50957V0.313598C5.45606 0.152945 5.02765 0.081543 4.38504 0.081543C3.54607 0.081543 2.88561 0.313598 2.40365 0.795558C1.86814 1.33107 1.60038 2.11648 1.60038 3.16965V3.97292H0.333008V5.16889H1.60038V13.1837Z" fill="#C6AAC6"/>
<path d="M11.038 13.3979C13.8227 13.3979 15.8754 11.2023 15.8754 8.57831V8.54261C15.8754 5.93646 13.8584 3.75872 11.0737 3.75872C8.2712 3.75872 6.25411 5.95431 6.25411 8.57831V8.61401C6.25411 11.2202 8.2712 13.3979 11.038 13.3979ZM11.0737 12.1662C9.12801 12.1662 7.66428 10.5597 7.66428 8.57831V8.54261C7.66428 6.59692 9.03876 4.97254 11.038 4.97254C12.9837 4.97254 14.4653 6.59692 14.4653 8.57831V8.61401C14.4653 10.5419 13.0729 12.1662 11.0737 12.1662Z" fill="#C6AAC6"/>
<path d="M17.7278 13.1837H19.1023V9.50653C19.1023 6.72187 20.7445 5.276 22.7616 5.276H22.8687V3.79442C21.1193 3.74087 19.7806 4.82974 19.1023 6.36487V3.95507H17.7278V13.1837Z" fill="#C6AAC6"/>
<path d="M29.2707 13.1837H30.6809V8.77467H33.7154C36.3751 8.77467 38.6243 7.38234 38.6243 4.68693V4.65123C38.6243 2.18788 36.7679 0.688455 33.9475 0.688455H29.2707V13.1837ZM30.6809 7.48944V1.99153H33.8404C35.8575 1.99153 37.1963 2.91975 37.1963 4.70478V4.74049C37.1963 6.38272 35.8396 7.48944 33.769 7.48944H30.6809Z" fill="#C6AAC6"/>
<path d="M44.4439 11.6486L41.088 3.95507H39.5707L43.7656 13.148C43.2122 14.4511 42.7124 14.8795 41.8734 14.8795C41.2844 14.8795 40.8738 14.7724 40.4275 14.5403L39.9634 15.6292C40.5882 15.9327 41.1594 16.0933 41.927 16.0933C43.3014 16.0933 44.2118 15.3971 44.9972 13.4872L48.8708 3.95507H47.407L44.4439 11.6486Z" fill="#C6AAC6"/>
<path d="M53.4959 13.3444C54.1564 13.3444 54.674 13.2194 55.156 12.9517V11.7735C54.674 12.0056 54.2992 12.0948 53.8172 12.0948C52.889 12.0948 52.2642 11.7021 52.2642 10.5597V5.16889H55.1917V3.95507H52.2642V1.17041H50.8897V3.95507H49.6045V5.16889H50.8897V10.7382C50.8897 12.6125 51.9965 13.3444 53.4959 13.3444Z" fill="#C6AAC6"/>
<path d="M56.9871 13.1837H58.3616V7.9C58.3616 6.16851 59.5397 5.00824 61.1284 5.00824C62.7706 5.00824 63.681 6.07926 63.681 7.7929V13.1837H65.0555V7.45374C65.0555 5.25815 63.7345 3.75872 61.5211 3.75872C59.9324 3.75872 58.9863 4.56198 58.3616 5.5616V0.152945H56.9871V13.1837Z" fill="#C6AAC6"/>
<path d="M71.5619 13.3979C74.3465 13.3979 76.3993 11.2023 76.3993 8.57831V8.54261C76.3993 5.93646 74.3822 3.75872 71.5976 3.75872C68.7951 3.75872 66.778 5.95431 66.778 8.57831V8.61401C66.778 11.2202 68.7951 13.3979 71.5619 13.3979ZM71.5976 12.1662C69.6519 12.1662 68.1881 10.5597 68.1881 8.57831V8.54261C68.1881 6.59692 69.5626 4.97254 71.5619 4.97254C73.5076 4.97254 74.9891 6.59692 74.9891 8.57831V8.61401C74.9891 10.5419 73.5968 12.1662 71.5976 12.1662Z" fill="#C6AAC6"/>
<path d="M78.2516 13.1837H79.6261V7.9C79.6261 6.16851 80.8042 5.00824 82.3929 5.00824C84.0352 5.00824 84.9455 6.07926 84.9455 7.7929V13.1837H86.32V7.45374C86.32 5.25815 84.9991 3.75872 82.7856 3.75872C81.197 3.75872 80.2509 4.56198 79.6261 5.5616V3.95507H78.2516V13.1837Z" fill="#C6AAC6"/>
</svg>
